<?xml version="1.0" encoding="UTF-8"?>
<svg xmlns="http://www.w3.org/2000/svg" xmlns:xlink="http://www.w3.org/1999/xlink" viewBox="0 0 64 64" width="20px" height="20px">
<g id="surface12761129">
<path style="fill-rule:nonzero;fill:green;fill-opacity:1;stroke-width:10;stroke-linecap:butt;stroke-linejoin:round;stroke:rgb(13.333334%,13.333334%,13.333334%);stroke-opacity:1;stroke-miterlimit:10;" d="M 205 44.953125 C 211.59375 49.21875 213.484375 58.03125 209.21875 64.625 L 117.0625 206.84375 C 114.640625 210.578125 110.609375 212.96875 106.171875 213.296875 C 105.828125 213.328125 105.46875 213.328125 105.125 213.328125 C 101.0625 213.328125 97.15625 211.59375 94.453125 208.5 L 48.046875 155.765625 C 42.859375 149.859375 43.4375 140.875 49.328125 135.6875 C 55.234375 130.5 64.21875 131.078125 69.40625 136.96875 L 103.40625 175.609375 L 185.34375 49.15625 C 189.609375 42.5625 198.421875 40.6875 205 44.953125 Z M 205 44.953125 " transform="matrix(0.25,0,0,0.25,0,0)"/>
<path style=" stroke:none;fill-rule:nonzero;fill:#81F065;fill-opacity:1;" d="M 51.25 11.238281 C 52.898438 12.304688 53.371094 14.507812 52.304688 16.15625 L 29.269531 51.710938 C 28.660156 52.644531 27.652344 53.242188 26.542969 53.324219 C 26.457031 53.332031 26.367188 53.332031 26.28125 53.332031 C 25.265625 53.332031 24.289062 52.898438 23.613281 52.125 L 12.011719 38.941406 C 10.714844 37.464844 10.859375 35.21875 12.332031 33.921875 C 13.808594 32.625 16.054688 32.769531 17.351562 34.242188 L 25.851562 43.902344 L 46.335938 12.289062 C 47.402344 10.640625 49.605469 10.171875 51.25 11.238281 Z M 51.25 11.238281 "/>
</g>
</svg>